<svg xmlns="http://www.w3.org/2000/svg" xmlns:xlink="http://www.w3.org/1999/xlink" width="35.984" height="31.49" viewBox="0 0 35.984 31.49">
  <defs>
    <style>
      .cls-1 {
        fill: #fff;
      }

      .cls-2 {
        filter: url(#checkmark-white);
      }
    </style>
    <filter id="checkmark-white" x="0" y="0" width="35.984" height="31.49" filterUnits="userSpaceOnUse">
      <feOffset dy="3" input="SourceAlpha"/>
      <feGaussianBlur stdDeviation="3" result="blur"/>
      <feFlood flood-opacity="0.161"/>
      <feComposite operator="in" in2="blur"/>
      <feComposite in="SourceGraphic"/>
    </filter>
  </defs>
  <g class="cls-2" transform="matrix(1, 0, 0, 1, 0, 0)">
    <path id="checkmark-white-2" data-name="checkmark-white" class="cls-1" d="M17.82,5.761l-1.6-1.6a.563.563,0,0,0-.8,0L7.269,12.778,2.593,8.1a.572.572,0,0,0-.808,0L.169,9.717a.572.572,0,0,0,0,.808L6.819,17.33a.554.554,0,0,0,.472.152.56.56,0,0,0,.488-.152L17.82,6.559a.564.564,0,0,0,0-.8Z" transform="translate(9 2)"/>
  </g>
</svg>
