<svg xmlns="http://www.w3.org/2000/svg" width="11.909" height="11.908" viewBox="0 0 11.909 11.908">
  <defs>
    <style>
      .cls-1 {
        fill: #8b8b8b;
      }
    </style>
  </defs>
  <path id="icon-edit" class="cls-1" d="M12.991,2.759c-.976-.977-1.709-.83-1.709-.83L2.6,10.607,1.92,13.829l3.223-.683,8.679-8.677s.146-.733-.831-1.71Zm-8.04,10L3.853,13a2.508,2.508,0,0,0-.467-.631,2.532,2.532,0,0,0-.631-.468l.237-1.1.318-.317a2.059,2.059,0,0,1,1.273.688,2.062,2.062,0,0,1,.688,1.273l-.319.317Z" transform="translate(-1.92 -1.921)"/>
</svg>
