<svg xmlns="http://www.w3.org/2000/svg" width="22.708" height="22.708" viewBox="0 0 22.708 22.708">
  <defs>
    <style>
      .cls-1 {
        fill: rgba(0,0,0,0.3);
      }
    </style>
  </defs>
  <path id="info-dark" class="cls-1" d="M11.993.64A11.354,11.354,0,1,0,23.346,11.993,11.353,11.353,0,0,0,11.993.64Zm1.06,4.1a1.25,1.25,0,0,1,1.432,1.376A1.826,1.826,0,0,1,12.5,7.88c-1.048,0-1.547-.526-1.516-1.4a1.872,1.872,0,0,1,2.07-1.743ZM10.216,18.793c-.757,0-1.309-.46-.781-2.476L10.3,12.74c.15-.572.175-.8,0-.8a5.745,5.745,0,0,0-1.788.785L8.138,12.1A10.064,10.064,0,0,1,13,9.666c.757,0,.883.894.5,2.271L12.508,15.7c-.176.664-.1.894.075.894a3.9,3.9,0,0,0,1.7-.85l.428.575a7.9,7.9,0,0,1-4.5,2.476Z" transform="translate(-0.638 -0.64)"/>
</svg>
