<svg xmlns="http://www.w3.org/2000/svg" width="9.881" height="13" viewBox="0 0 9.881 13">
  <defs>
    <style>
      .cls-1 {
        fill: #d6acac;
      }
    </style>
  </defs>
  <path id="icon-trash" class="cls-1" d="M4.483,4.624l.716,7.09c.04.3,1.486,1.285,3.581,1.286s3.543-.987,3.582-1.286l.716-7.09a9.335,9.335,0,0,1-4.3.9,9.332,9.332,0,0,1-4.3-.9ZM10.84.981,10.282.363C10.066.056,9.832,0,9.376,0H8.186c-.455,0-.69.056-.9.363L6.723.981c-1.671.292-2.882,1.066-2.882,1.637v.11c0,1.005,2.212,1.821,4.94,1.821s4.941-.815,4.941-1.821v-.11c0-.571-1.211-1.345-2.882-1.637Zm-.714,1.839-.7-.871h-1.3l-.694.871h-1.1S7.542,1.377,7.7,1.182A.5.5,0,0,1,8.117.975H9.445a.5.5,0,0,1,.414.207c.161.2,1.372,1.639,1.372,1.639h-1.1Z" transform="translate(-3.841)"/>
</svg>
